<svg xmlns="http://www.w3.org/2000/svg" width="314" height="380" fill="none" viewBox="0 0 314 380">
  <g clip-path="url(#a)">
    <path fill="#CCC" d="M-38.294 133.602a41.446 41.446 0 0 1 32.422 19.209c.981 1.57 2.263 3.295 1.583 5.226a3.437 3.437 0 0 1-3.56 2.378 4.501 4.501 0 0 1-2.77-6.941 4.502 4.502 0 0 1 2.306-1.736c4.534-1.935 9.108 1.055 12.801 3.441 8.415 5.436 17.671 10.353 27.868 10.972 9.435.574 19.552-3.126 24.8-11.31.917-1.431-1.362-2.754-2.276-1.33-5.204 8.116-15.725 11.031-24.873 9.776a48.317 48.317 0 0 1-15.563-5.285c-2.515-1.305-4.953-2.752-7.343-4.272a46.871 46.871 0 0 0-7.2-4.13c-4.2-1.725-9.759-1.59-12.692 2.382-2.736 3.706-.622 9.876 3.955 10.917a6.18 6.18 0 0 0 5.603-1.728 6.194 6.194 0 0 0 1.642-5.631c-.457-2.182-2.1-4.317-3.372-6.101a44.086 44.086 0 0 0-33.331-18.472c-1.695-.084-1.69 2.552 0 2.635Zm320.309 157.28a32.978 32.978 0 0 1-15.072-25.911c-.074-1.47-.295-3.165.925-4.243a2.73 2.73 0 0 1 3.394-.272 3.584 3.584 0 0 1-.766 5.895 3.58 3.58 0 0 1-2.274.312c-3.899-.414-5.917-4.264-7.557-7.353-3.738-7.038-8.26-14.041-15.102-18.425-6.33-4.056-14.79-5.409-21.606-1.76-1.192.638-.122 2.441 1.065 1.806 6.759-3.619 15.195-1.564 21.062 2.854a38.453 38.453 0 0 1 8.761 9.704c1.24 1.882 2.373 3.832 3.443 5.814a37.309 37.309 0 0 0 3.401 5.66c2.248 2.826 6.161 4.888 9.737 3.267a5.748 5.748 0 0 0 3.034-4.185 5.755 5.755 0 0 0-1.55-4.931 4.917 4.917 0 0 0-7.883 2.302 14.35 14.35 0 0 0-.023 5.545 35.073 35.073 0 0 0 15.99 25.751c1.145.715 2.163-1.117 1.021-1.83ZM171.748 59.292a32.97 32.97 0 0 1 26.742-13.536c1.472.012 3.176-.11 4.182 1.172a2.734 2.734 0 0 1 .073 3.403 3.578 3.578 0 0 1-4.307.601 3.578 3.578 0 0 1-1.712-3.998c.641-3.868 4.601-5.658 7.78-7.115 7.243-3.321 14.497-7.428 19.271-14.003 4.417-6.083 6.26-14.45 3.014-21.467-.568-1.228-2.43-.265-1.865.957 3.219 6.96.678 15.262-4.074 20.862a38.45 38.45 0 0 1-10.197 8.18c-1.95 1.129-3.963 2.146-6.004 3.098a37.28 37.28 0 0 0-5.848 3.066c-2.952 2.079-5.237 5.865-3.827 9.53a5.758 5.758 0 0 0 6.657 3.237 5.75 5.75 0 0 0 2.356-1.223 4.924 4.924 0 0 0 1.236-4.497 4.925 4.925 0 0 0-3.075-3.508 14.355 14.355 0 0 0-5.534-.347 35.062 35.062 0 0 0-26.636 14.462c-.78 1.1.989 2.224 1.768 1.126ZM160.26 76.87h-6.243v20.517h6.243V76.87Z"/>
    <path fill="#B3B3B3" d="m59.318 92.551 4.338-4.34L49.4 73.953l-4.339 4.34 14.257 14.26Zm175.533 43.118 4.339 4.34 14.256-14.259-4.339-4.34-14.256 14.259Z"/>
  </g>
  <circle cx="158.437" cy="178" r="58" fill="#27AE60" opacity=".4"/>
  <path fill="#27AE60" d="m180.487 165.124-1.155-1.163a3.253 3.253 0 0 0-4.616 0l-19.605 19.769-6.957-7.011a3.25 3.25 0 0 0-4.613.001l-1.154 1.162a3.323 3.323 0 0 0 0 4.653l10.41 10.506a3.255 3.255 0 0 0 4.615 0l23.075-23.264a3.325 3.325 0 0 0 0-4.653Z"/>
  <g clip-path="url(#b)">
    <path fill="#6C63FF" d="M289.012 195.457a7.823 7.823 0 0 0 7.821-7.827c0-4.323-3.501-7.828-7.821-7.828s-7.822 3.505-7.822 7.828a7.824 7.824 0 0 0 7.822 7.827Z"/>
    <path fill="#FF6584" d="M168.023 8.182a5.589 5.589 0 0 0 5.587-5.591A5.589 5.589 0 0 0 168.023-3a5.589 5.589 0 0 0-5.586 5.591 5.589 5.589 0 0 0 5.586 5.591Zm-91.366 159.32a5.589 5.589 0 0 0 5.586-5.591 5.589 5.589 0 0 0-5.586-5.591 5.589 5.589 0 0 0-5.587 5.591 5.589 5.589 0 0 0 5.587 5.591Zm135.366 67.68a5.589 5.589 0 0 0 5.587-5.591 5.589 5.589 0 0 0-5.587-5.591 5.588 5.588 0 0 0-5.586 5.591 5.588 5.588 0 0 0 5.586 5.591Z"/>
    <path fill="#6C63FF" d="M272.195 148.493a5.589 5.589 0 0 0 5.587-5.591 5.589 5.589 0 0 0-5.587-5.591 5.59 5.59 0 0 0-5.587 5.591 5.59 5.59 0 0 0 5.587 5.591ZM102.356 224.53a5.589 5.589 0 0 0 5.587-5.591 5.589 5.589 0 0 0-5.587-5.591 5.589 5.589 0 0 0-5.587 5.591 5.589 5.589 0 0 0 5.587 5.591Z"/>
    <path fill="#E6E6E6" d="M157.023 246.182a5.589 5.589 0 0 0 5.587-5.591 5.589 5.589 0 0 0-5.587-5.591 5.588 5.588 0 0 0-5.586 5.591 5.588 5.588 0 0 0 5.586 5.591Z"/>
    <path fill="#CCC" d="M229.735 41.146a5.589 5.589 0 0 0 5.587-5.59 5.589 5.589 0 0 0-5.587-5.592 5.59 5.59 0 0 0-5.587 5.591 5.59 5.59 0 0 0 5.587 5.591ZM18.573 102.621a37.083 37.083 0 0 1 29.013 17.199c.878 1.405 2.025 2.949 1.417 4.679a3.073 3.073 0 0 1-3.185 2.129 4.03 4.03 0 0 1-3.175-3.726 4.033 4.033 0 0 1 2.759-4.044c4.057-1.732 8.15.945 11.456 3.081 7.53 4.868 15.813 9.27 24.938 9.824 8.443.514 17.496-2.799 22.192-10.126.822-1.282-1.218-2.466-2.036-1.191-4.657 7.267-14.072 9.876-22.258 8.753a43.245 43.245 0 0 1-13.928-4.732c-2.25-1.168-4.432-2.464-6.57-3.825a41.974 41.974 0 0 0-6.444-3.698c-3.758-1.544-8.733-1.424-11.358 2.133-2.448 3.318-.556 8.842 3.54 9.775a5.535 5.535 0 0 0 6.483-6.589c-.409-1.954-1.879-3.866-3.017-5.463a39.44 39.44 0 0 0-29.828-16.539c-1.516-.075-1.512 2.285 0 2.36Zm76.723 101.765a29.532 29.532 0 0 1-20.698 17.08c-1.288.279-2.753.721-3.883-.199a2.447 2.447 0 0 1-.733-2.957 3.206 3.206 0 0 1 5.925 1.781c.201 3.502-2.906 5.845-5.396 7.743-5.675 4.324-11.203 9.337-14.081 16.016-2.662 6.18-2.627 13.847 1.588 19.334.738.96 2.174-.248 1.44-1.203-4.18-5.442-3.592-13.19-.542-19.014a34.414 34.414 0 0 1 7.299-9.147 68.407 68.407 0 0 1 4.635-3.887 33.405 33.405 0 0 0 4.506-3.827c2.17-2.396 3.422-6.151 1.469-9.073a5.15 5.15 0 0 0-6.451-1.516 5.147 5.147 0 0 0-1.818 1.533 4.396 4.396 0 0 0 1.183 5.822 4.396 4.396 0 0 0 1.997.803c1.67.059 3.335-.208 4.902-.786a31.406 31.406 0 0 0 20.424-17.867c.465-1.115-1.301-1.747-1.766-.636ZM156.524 39.22a29.485 29.485 0 0 1-13.181-4.064 29.515 29.515 0 0 1-9.895-9.615c-.699-1.118-1.611-2.346-1.127-3.722a2.45 2.45 0 0 1 2.533-1.693 3.202 3.202 0 0 1 2.526 2.963 3.21 3.21 0 0 1-2.195 3.216c-3.227 1.378-6.483-.751-9.111-2.45-5.99-3.872-12.577-7.373-19.835-7.814-6.715-.408-13.915 2.227-17.65 8.054-.654 1.02.969 1.962 1.619.947 3.704-5.78 11.192-7.855 17.703-6.962a34.392 34.392 0 0 1 11.077 3.764 68.7 68.7 0 0 1 5.226 3.043 33.33 33.33 0 0 0 5.125 2.94c2.989 1.229 6.946 1.133 9.033-1.696a5.156 5.156 0 0 0-.758-6.584 5.144 5.144 0 0 0-2.057-1.19 4.399 4.399 0 0 0-5.077 3.088c-.204.7-.231 1.44-.079 2.152a12.86 12.86 0 0 0 2.399 4.345 31.391 31.391 0 0 0 10.369 9.275 31.36 31.36 0 0 0 13.355 3.88c1.206.059 1.203-1.818 0-1.877Zm3.935 39.466h-5.587v18.37h5.587v-18.37Z"/>
    <path fill="#B3B3B3" d="m70.128 65.866 3.883-3.886-12.758-12.767-3.882 3.886 12.757 12.767Zm157.081 38.605 3.883 3.886 12.757-12.767-3.882-3.885-12.758 12.766Z"/>
  </g>
  <defs>
    <clipPath id="a">
      <path fill="#fff" d="M0 0h305v343H0z" transform="translate(.437)"/>
    </clipPath>
    <clipPath id="b">
      <path fill="#fff" d="M0 0h313v373H0z" transform="translate(.437 7)"/>
    </clipPath>
  </defs>
</svg>
