<svg xmlns="http://www.w3.org/2000/svg" width="26" height="26" fill="none" viewBox="0 0 26 26">
  <path fill="#8E8EA9" fill-rule="evenodd" d="M2.187 3.25a.75.75 0 0 1 .75-.75h2.25a.75.75 0 0 1 .727.568L6.522 5.5h17.415a.75.75 0 0 1 .727.931l-2.25 9a.75.75 0 0 1-.728.569h-13.5a.75.75 0 0 1-.727-.569L4.602 4H2.937a.75.75 0 0 1-.75-.75ZM6.897 7l1.875 7.5h12.33L22.977 7H6.897Zm2.79 12a1.5 1.5 0 1 0 0 3 1.5 1.5 0 0 0 0-3Zm-3 1.5a3 3 0 1 1 6 0 3 3 0 0 1-6 0Zm13.5-1.5a1.5 1.5 0 1 0 0 3 1.5 1.5 0 0 0 0-3Zm-3 1.5a3 3 0 1 1 6 0 3 3 0 0 1-6 0Z" clip-rule="evenodd"/>
</svg>
