<?xml version="1.0" standalone="no"?>
<!DOCTYPE svg PUBLIC "-//W3C//DTD SVG 20010904//EN"
 "http://www.w3.org/TR/2001/REC-SVG-20010904/DTD/svg10.dtd">
<svg version="1.0" xmlns="http://www.w3.org/2000/svg"
 width="512" height="512" viewBox="0 0 512.000000 512.000000"
 preserveAspectRatio="xMidYMid meet">
<metadata>
Created by potrace 1.16, written by Peter Selinger 2001-2019
</metadata>
<g transform="translate(0.000000,512.000000) scale(0.100000,-0.100000)"
fill="#000000" stroke="none">
<path d="M568 4861 c-145 -47 -269 -174 -312 -320 -14 -49 -16 -267 -16 -2158
0 -2090 0 -2103 20 -2123 20 -20 33 -20 698 -20 570 0 681 2 698 14 18 14 19
35 24 606 l5 591 289 -501 c159 -276 297 -505 307 -511 10 -5 30 -9 45 -9 17
0 233 119 599 330 577 333 595 345 595 398 0 21 -104 208 -133 239 -31 35 -98
32 -127 -4 -28 -36 -22 -76 19 -144 17 -27 31 -53 31 -58 0 -11 -939 -553
-951 -549 -5 2 -159 264 -344 583 l-335 580 0 506 0 506 -23 21 c-32 30 -87
29 -115 -1 l-22 -23 0 -1207 0 -1207 -560 0 -560 0 2 2028 c3 1602 6 2035 16
2064 32 92 124 183 215 210 30 9 126 13 327 13 201 0 297 -4 327 -13 91 -27
184 -119 215 -210 9 -27 13 -195 15 -618 4 -570 4 -582 24 -600 27 -25 91 -24
118 0 20 18 21 29 23 378 l3 359 639 -1108 c351 -609 652 -1121 669 -1137 25
-24 35 -27 66 -22 20 3 44 15 54 27 30 37 21 77 -41 184 -130 224 -127 218
-102 205 12 -6 236 -135 496 -286 321 -186 483 -274 503 -274 16 0 38 8 49 18
34 29 672 1146 672 1176 0 15 -4 35 -10 45 -5 10 -235 148 -510 307 l-501 289
591 5 c571 5 592 6 606 24 12 17 14 128 14 698 0 665 0 678 -20 698 -19 19
-33 20 -448 20 l-429 0 -21 -23 c-30 -32 -29 -87 1 -115 23 -22 27 -22 390
-22 l367 0 0 -560 0 -560 -668 0 -669 0 -869 502 -869 501 -37 59 -37 58 963
0 c931 0 965 1 987 19 33 27 33 95 0 122 -23 18 -65 19 -1460 18 -1364 0
-1439 -1 -1493 -18z m2513 -1286 c767 -443 1395 -809 1397 -814 5 -16 -540
-952 -553 -949 -6 2 -268 151 -582 333 l-571 329 -546 946 c-300 521 -546 950
-546 953 0 4 1 7 3 7 2 0 631 -362 1398 -805z"/>
<path d="M3722 4857 c-30 -32 -29 -87 1 -115 30 -28 97 -30 121 -3 28 31 31
82 6 114 -29 36 -96 39 -128 4z"/>
<path d="M889 4407 c-92 -26 -160 -99 -180 -195 -51 -249 251 -413 431 -233
35 35 53 63 64 102 20 65 20 92 1 155 -38 130 -183 208 -316 171z m110 -172
c16 -8 34 -28 41 -45 28 -67 -44 -138 -111 -110 -44 19 -66 68 -49 110 12 29
50 59 78 60 7 0 26 -7 41 -15z"/>
<path d="M1542 3077 c-15 -16 -22 -36 -22 -64 0 -51 27 -78 80 -78 54 0 80 27
80 80 0 30 -6 47 -23 63 -32 30 -87 29 -115 -1z"/>
<path d="M3153 1615 c-31 -21 -40 -78 -19 -110 49 -74 156 -44 156 43 0 70
-79 108 -137 67z"/>
</g>
</svg>
