<svg xmlns="http://www.w3.org/2000/svg" width="17" height="20" fill="none" viewBox="0 0 17 20">
  <path fill="gray" fill-rule="evenodd" d="M.73 15.697a1.003 1.003 0 0 1-.29-.798l.38-4.17c.042-.457.244-.888.57-1.214L10.385.519c.703-.705 1.976-.67 2.716.069l2.738 2.738h.002c.764.767.796 1.985.068 2.715l-8.997 8.997a1.975 1.975 0 0 1-1.214.569l-4.17.379a1.003 1.003 0 0 1-.798-.289Zm11.726-9.03L9.76 3.974l1.948-1.95 2.694 2.695-1.947 1.95Zm-6.94 6.947-2.976.27.264-2.955L8.42 5.312l2.696 2.697-5.6 5.605Zm9.92 6.375c.55 0 1-.45 1-1s-.45-1-1-1h-14c-.548 0-1 .45-1 1s.452 1 1 1h14Z" clip-rule="evenodd"/>
</svg>
