<svg xmlns="http://www.w3.org/2000/svg" width="61" height="60" fill="none" viewBox="0 0 61 60">
  <path fill="#F44336" d="M30.436 0c-16.542 0-30 13.457-30 30s13.458 30 30 30c16.543 0 30-13.457 30-30s-13.457-30-30-30Z"/>
  <path fill="#FAFAFA" d="M41.384 37.412a2.498 2.498 0 0 1-1.768 4.268 2.49 2.49 0 0 1-1.767-.733l-7.513-7.513-7.512 7.513a2.493 2.493 0 0 1-1.768.733 2.49 2.49 0 0 1-1.767-.733 2.498 2.498 0 0 1 0-3.535L26.8 29.9l-7.512-7.513a2.498 2.498 0 0 1 0-3.535 2.498 2.498 0 0 1 3.535 0l7.512 7.513 7.513-7.513a2.498 2.498 0 0 1 3.535 0 2.498 2.498 0 0 1 0 3.535L33.871 29.9l7.513 7.512Z"/>
</svg>
