<svg xmlns="http://www.w3.org/2000/svg" width="21" height="21" fill="none" viewBox="0 0 21 21">
  <g clip-path="url(#a)">
    <path fill="#FF7B2C" d="M5.579 15.5a2.501 2.501 0 0 1 4.716 0h7.642a.833.833 0 1 1 0 1.667h-7.642a2.5 2.5 0 0 1-4.716 0H2.937a.833.833 0 1 1 0-1.667h2.642Zm5-5.833a2.501 2.501 0 0 1 4.716 0h2.642a.833.833 0 1 1 0 1.666h-2.642a2.501 2.501 0 0 1-4.716 0H2.936a.833.833 0 0 1 0-1.666h7.642Zm-5-5.834a2.5 2.5 0 0 1 4.716 0h7.642a.833.833 0 1 1 0 1.667h-7.642a2.501 2.501 0 0 1-4.716 0H2.937a.833.833 0 0 1 0-1.667h2.642ZM7.937 5.5a.833.833 0 1 0 0-1.667.833.833 0 0 0 0 1.667Zm5 5.833a.833.833 0 1 0 0-1.666.833.833 0 0 0 0 1.666Zm-5 5.834a.833.833 0 1 0 0-1.667.833.833 0 0 0 0 1.667Z"/>
  </g>
  <defs>
    <clipPath id="a">
      <path fill="#fff" d="M0 0h20v20H0z" transform="translate(.437 .5)"/>
    </clipPath>
  </defs>
</svg>
