<svg xmlns="http://www.w3.org/2000/svg" width="26" height="26" fill="none" viewBox="0 0 26 26">
  <g clip-path="url(#a)">
    <path fill="#3C4B7B" fill-rule="evenodd" d="M14.914 15.387a2.27 2.27 0 0 1 2.275 2.26v3.203c0 .268.215.483.49.489h1.985c1.565 0 2.837-1.256 2.837-2.8V9.45a1.746 1.746 0 0 0-.695-1.363L14.938 2.61a2.516 2.516 0 0 0-3.136.002L4.98 8.086a1.745 1.745 0 0 0-.71 1.383v9.07c0 1.544 1.272 2.8 2.837 2.8h2.004a.506.506 0 0 0 .512-.5.8.8 0 0 1 .02-.177v-3.016a2.273 2.273 0 0 1 2.259-2.26h3.011Zm4.75 7.514H17.66c-1.148-.027-2.033-.928-2.033-2.05v-3.205a.706.706 0 0 0-.713-.697h-3.006a.705.705 0 0 0-.702.697v3.194c0 .078-.01.153-.032.224A2.072 2.072 0 0 1 9.112 22.9H7.108c-2.426 0-4.399-1.957-4.399-4.362V9.462A3.285 3.285 0 0 1 4.02 6.854l6.808-5.463a4.075 4.075 0 0 1 5.083-.002l6.856 5.469a3.29 3.29 0 0 1 1.296 2.582v9.099c0 2.405-1.973 4.362-4.399 4.362Z" clip-rule="evenodd"/>
  </g>
  <defs>
    <clipPath id="a">
      <path fill="#fff" d="M0 0h25v25H0z" transform="translate(.437 .5)"/>
    </clipPath>
  </defs>
</svg>
