<svg xmlns="http://www.w3.org/2000/svg" width="49" height="48" fill="none" viewBox="0 0 49 48">
  <g clip-path="url(#a)">
    <path fill="#D476E2" d="M43.614 0H24.622a4.824 4.824 0 0 0-4.824 4.824v12.277a4.824 4.824 0 0 0 4.824 4.824h10.199v5.086c0 .803.97 1.204 1.538.637l5.723-5.723h1.532A4.824 4.824 0 0 0 48.44 17.1V4.825A4.824 4.824 0 0 0 43.614 0Z"/>
    <path fill="#EA82FA" d="M24.622 0h18.992a4.824 4.824 0 0 1 4.825 4.824v1.574a4.824 4.824 0 0 0-4.825-4.824H24.622a4.824 4.824 0 0 0-4.824 4.824V4.824A4.824 4.824 0 0 1 24.622 0Z"/>
    <path fill="#FFEFE4" d="M38.063 7.807H25.048a1.1 1.1 0 0 1 0-2.199h13.015a1.1 1.1 0 0 1 0 2.2Zm5.125 2.395h-18.14a1.1 1.1 0 0 0 0 2.2h18.14a1.1 1.1 0 1 0 0-2.2Zm0 4.594h-18.14a1.1 1.1 0 0 0 0 2.2h18.14a1.1 1.1 0 1 0 0-2.2Z"/>
    <path fill="#FF8354" d="M17.034 37.214h-3.262v4.921h1.48c.984 0 1.782-.797 1.782-1.781v-3.14Z"/>
    <path fill="#E0734A" d="M15.252 41.227h-1.48v.908h1.48c.984 0 1.782-.798 1.782-1.782v-.907c0 .984-.798 1.782-1.782 1.782Z"/>
    <path fill="#FFEFE4" d="m13.771 37.506 15.32 5.674V19.35l-15.32 5.674v12.482Z"/>
    <path fill="#EDD4C2" d="m13.771 37.506 15.32 5.674v-.908l-15.32-5.674v.908Z"/>
    <path fill="#E0734A" d="M10.793 48.002a2.979 2.979 0 0 0 2.978-2.979v-7.517H7.814v7.517a2.979 2.979 0 0 0 2.979 2.98Z"/>
    <path fill="#CC6944" d="M10.793 47.094a2.979 2.979 0 0 1-2.98-2.979v.908a2.979 2.979 0 1 0 5.958 0v-.908a2.979 2.979 0 0 1-2.979 2.98Z"/>
    <path fill="#FF8354" d="M6.68 37.506h7.092V25.023H6.68a6.241 6.241 0 1 0 0 12.483Z"/>
    <path fill="#EDD4C2" d="M30.176 34.718H29.09v-6.906h1.086a3.453 3.453 0 0 1 0 6.906Z"/>
    <path fill="#FF8354" d="M30.431 44.532c-.74 0-1.341-.6-1.341-1.34V19.337a1.341 1.341 0 0 1 2.682 0V43.19c0 .741-.6 1.341-1.34 1.341Z"/>
    <path fill="#E0734A" d="M30.431 43.624c-.74 0-1.341-.6-1.341-1.34v.907a1.341 1.341 0 1 0 2.682 0v-.908c0 .74-.6 1.341-1.34 1.341Z"/>
    <path fill="#FFF7F2" d="M13.771 25.024v.907l15.32-5.673v-.908l-15.32 5.674Z"/>
    <path fill="#FFA172" d="M6.68 25.023a6.241 6.241 0 0 0-6.223 6.695 6.24 6.24 0 0 1 6.223-5.787h7.092v-.908H6.68Zm23.751-7.026c-.74 0-1.341.6-1.341 1.341v.908a1.341 1.341 0 1 1 2.682 0v-.908c0-.74-.6-1.34-1.34-1.34Z"/>
    <path fill="#E0734A" d="M4.86 27.12H2.013a6.242 6.242 0 0 0-1.158 1.898H4.86a.95.95 0 0 0 0-1.898Zm0 3.195H.51a6.287 6.287 0 0 0 0 1.899h4.35a.95.95 0 1 0 0-1.899Zm0 3.27H.886c.283.705.69 1.348 1.196 1.898H4.86a.95.95 0 1 0 0-1.898Z"/>
  </g>
  <defs>
    <clipPath id="a">
      <path fill="#fff" d="M0 0h48v48H0z" transform="translate(.437)"/>
    </clipPath>
  </defs>
</svg>
