<svg xmlns="http://www.w3.org/2000/svg" width="49" height="48" fill="none" viewBox="0 0 49 48">
  <path fill="#F6CCAF" d="M47.437 28.74c0 1.68.24 1-12.68 13.92a8 8 0 0 1-5.65 2.34h-17.67V33.48c4.57-3.14 8-2.48 19.35-2.48a3.002 3.002 0 0 1 2.9 3.76l8.53-8a3 3 0 0 1 5.22 1.98Z"/>
  <path fill="#EDB996" d="M32.687 31.76s.02-.05 0 0Zm13.65-5.31c-.29 1.18.08.55-12.58 13.21a8 8 0 0 1-5.65 2.34h-16.67v3h17.67a8 8 0 0 0 5.65-2.34l11.8-11.8a3.001 3.001 0 0 0-.22-4.41Z"/>
  <path fill="#9DCC6B" d="M11.437 30h-10v17h10V30Z"/>
  <path fill="#B5E08C" d="M11.437 30c0 12.64-.1 12 0 12a7 7 0 0 1-7-7v-5h7Z"/>
  <path fill="#DB5669" d="m39.437 17-15 10-15-10h5V1h20v16h5Z"/>
  <path fill="#F26674" d="M34.437 17a16 16 0 0 1-16-16c0-.1-.79 0 16 0v16Z"/>
  <path fill="#EDEBF2" d="M20.436 18a1 1 0 0 1-.83-1.55l8-12a1 1 0 0 1 1.66 1.1c-8.6 12.91-8.07 12.45-8.83 12.45Zm8 0a3 3 0 1 1 0-6 3 3 0 0 1 0 6Zm0-4a1 1 0 1 0 0 2 1 1 0 0 0 0-2Zm-8-4a3 3 0 1 1 0-6 3 3 0 0 1 0 6Zm0-4a1 1 0 1 0 0 2 1 1 0 0 0 0-2Z"/>
  <path fill="#EDB996" d="M30.787 37h-8.75a1 1 0 0 1 0-2h8.75a2 2 0 1 0 0-4 3 3 0 0 1 0 6Z"/>
</svg>
