<?xml version="1.0" standalone="no"?>
<!DOCTYPE svg PUBLIC "-//W3C//DTD SVG 20010904//EN"
 "http://www.w3.org/TR/2001/REC-SVG-20010904/DTD/svg10.dtd">
<svg version="1.0" xmlns="http://www.w3.org/2000/svg"
 width="64.000000px" height="64.000000px" viewBox="0 0 64.000000 64.000000"
 preserveAspectRatio="xMidYMid meet">

<g transform="translate(0.000000,64.000000) scale(0.100000,-0.100000)"
fill="#000000" stroke="none">
<path d="M226 576 c-96 -36 -165 -127 -173 -228 -7 -79 8 -135 50 -190 68 -88
186 -128 294 -99 101 27 182 127 190 233 7 79 -8 135 -50 190 -52 68 -113 100
-200 105 -46 2 -86 -2 -111 -11z m114 -171 l0 -65 65 0 c58 0 65 -2 65 -20 0
-18 -7 -20 -65 -20 l-65 0 0 -65 c0 -58 -2 -65 -20 -65 -18 0 -20 7 -20 65 l0
65 -65 0 c-58 0 -65 2 -65 20 0 18 7 20 65 20 l65 0 0 65 c0 58 2 65 20 65 18
0 20 -7 20 -65z"/>
</g>
</svg>
