<svg xmlns="http://www.w3.org/2000/svg" width="49" height="48" fill="none" viewBox="0 0 49 48">
  <g clip-path="url(#a)">
    <path fill="#EDB996" d="M17.936 23v24h-10V29h4l6-6Z"/>
    <path fill="#F6CCAF" d="M17.937 25v20a8 8 0 0 1-5.66-2.34c-2.96-2.98-2.34-6.15-2.34-11.66h2l6-6Z"/>
    <path fill="#EDB996" d="M41.937 29v18h-24V23l6 6h18Z"/>
    <path fill="#F6CCAF" d="M41.937 31v14h-2a19 19 0 0 1-18.88-16.88l2.88 2.88h18Zm-24.001-8-6 6h-10l6-6h10Z"/>
    <path fill="#FFDEC7" d="m17.937 23-4 4h-2.34a2.34 2.34 0 0 1-1.66-4h8Z"/>
    <path fill="#F6CCAF" d="M47.937 29h-24l-6-6h24l6 6Z"/>
    <path fill="#FFDEC7" d="M45.937 27h-15.34a13.65 13.65 0 0 1-9.66-4c-.1-.1.35 0 21 0l4 4Z"/>
    <path fill="#9DCC6B" d="M23.936 15h-3v8h-8v-8h-3c6-6.85 4.48-5.11 7-8l7 8Zm16.001-6h-3v14h-8V9h-3c6-6.85 4.48-5.11 7-8l7 8Z"/>
    <path fill="#B5E08C" d="M39.937 9h-3v12a6 6 0 0 1-6-6V3.29l2-2.29 7 8Zm-16.001 6h-3v6a6 6 0 0 1-6-6V9.29l2-2.29 7 8Z"/>
    <path fill="#000" d="M48.647 28.29c-6.56-6.55-6.06-6.1-6.33-6.21-.27-.11-.08-.08-4.38-.08V10h2a1 1 0 0 0 .75-1.66l-7-8a1 1 0 0 0-1.5 0c-7.39 8.44-7.53 8.25-7.16 9.07.37.82.77.59 2.91.59v12h-6v-6h2a1 1 0 0 0 .75-1.66l-7-8a1 1 0 0 0-1.5 0c-7.39 8.44-7.53 8.25-7.16 9.07.37.82.77.59 2.91.59v6c-4.33 0-4.32-.1-4.71.29-6.46 6.47-6.56 6.25-6.21 7.09.35.84.75.62 5.92.62v17a1 1 0 0 0 1 1h34a1 1 0 0 0 1-1V30c5.27 0 5.58.2 5.92-.62a1 1 0 0 0-.21-1.09ZM28.937 8h-.8l4.8-5.48 4.8 5.48h-.8a1 1 0 0 0-1 1v13h-6V9a1 1 0 0 0-1-1Zm-16 6h-.8l4.8-5.48 4.8 5.48h-.8a1 1 0 0 0-1 1v7h-6v-7a1 1 0 0 0-1-1Zm-4.59 10h7.18l-4 4h-7.18l4-4Zm.59 6c3.26 0 3.32.09 3.71-.29l4.29-4.3V46h-8V30Zm32 16h-22V25.41c4.61 4.59 4.43 4.59 5 4.59h17v16Zm-16.59-18-4-4h21.18l4 4h-21.18Z"/>
    <path fill="#000" d="M43.937 18v-4a1 1 0 1 0-2 0v4a1 1 0 0 0 2 0ZM23.936 6V2a1 1 0 1 0-2 0v4a1 1 0 0 0 2 0ZM6.937 20v-4a1 1 0 1 0-2 0v4a1 1 0 1 0 2 0Z"/>
  </g>
  <defs>
    <clipPath id="a">
      <path fill="#fff" d="M0 0h48v48H0z" transform="translate(.937)"/>
    </clipPath>
  </defs>
</svg>
