<svg xmlns="http://www.w3.org/2000/svg" width="26" height="26" fill="none" viewBox="0 0 26 26">
  <path fill="#8E8EA9" fill-rule="evenodd" d="M20.936 22s1.5 0 1.5-1.5-1.5-6-9-6-9 4.5-9 6 1.5 1.5 1.5 1.5h15ZM5.944 20.584v-.003.003Zm.026-.084h14.934a.379.379 0 0 0 .02-.003l.012-.003c-.001-.369-.23-1.479-1.247-2.496C18.71 17.02 16.87 16 13.437 16c-3.435 0-5.274 1.02-6.252 1.998-1.017 1.017-1.245 2.127-1.248 2.496l.033.006Zm14.96.084v-.003.003ZM13.437 11.5a3 3 0 1 0 0-6 3 3 0 0 0 0 6Zm4.5-3a4.5 4.5 0 1 1-9 0 4.5 4.5 0 0 1 9 0Z" clip-rule="evenodd"/>
</svg>
