<?xml version="1.0" standalone="no"?>
<!DOCTYPE svg PUBLIC "-//W3C//DTD SVG 20010904//EN"
 "http://www.w3.org/TR/2001/REC-SVG-20010904/DTD/svg10.dtd">
<svg version="1.0" xmlns="http://www.w3.org/2000/svg"
 width="512" height="512" viewBox="0 0 512.000000 512.000000"
 preserveAspectRatio="xMidYMid meet">
<metadata>
Created by potrace 1.16, written by Peter Selinger 2001-2019
</metadata>
<g transform="translate(0.000000,512.000000) scale(0.100000,-0.100000)"
fill="#000000" stroke="none">
<path d="M795 4435 c-379 -156 -695 -292 -702 -302 -7 -9 -13 -32 -13 -51 0
-29 193 -760 236 -895 30 -92 57 -90 379 31 l260 98 5 -964 c5 -939 5 -964 24
-978 30 -21 2162 -21 2192 0 19 14 19 39 24 979 l5 964 260 -98 c143 -54 275
-99 293 -99 50 0 69 15 86 67 45 140 236 866 236 897 0 21 -7 43 -18 54 -9 9
-326 144 -704 300 l-686 282 -594 0 -593 -1 -690 -284z m1739 73 c-30 -103
-122 -223 -212 -275 -105 -62 -253 -81 -369 -48 -153 44 -283 172 -327 323
l-15 52 469 0 469 0 -15 -52z m-1019 -178 c78 -148 243 -276 406 -315 82 -19
236 -19 318 0 211 50 402 234 460 446 l16 55 589 -242 c323 -134 589 -244 591
-246 6 -8 -191 -708 -199 -708 -5 0 -130 45 -276 100 -280 105 -325 115 -360
80 -20 -20 -20 -33 -20 -1000 l0 -980 -960 0 -960 0 0 980 c0 967 0 980 -20
1000 -35 35 -79 25 -357 -80 -146 -55 -270 -100 -277 -100 -9 0 -208 699 -201
708 2 2 267 112 591 246 l589 242 16 -55 c8 -31 33 -90 54 -131z"/>
<path d="M4418 4542 c-172 -172 -178 -179 -178 -218 0 -53 31 -84 85 -84 34 0
46 8 136 97 l99 97 0 -1394 0 -1394 -99 97 c-91 90 -101 97 -138 97 -52 0 -83
-31 -83 -85 0 -38 8 -47 178 -217 239 -239 205 -239 444 0 172 172 178 179
178 218 0 53 -31 84 -85 84 -34 0 -46 -8 -136 -97 l-99 -97 0 1394 0 1394 99
-97 c91 -90 101 -97 138 -97 52 0 83 31 83 85 0 38 -8 47 -178 217 -177 177
-178 178 -222 178 -44 0 -45 -1 -222 -178z"/>
<path d="M418 1022 c-239 -239 -239 -205 0 -444 172 -172 179 -178 218 -178
53 0 84 31 84 85 0 34 -8 46 -97 136 l-97 99 1554 0 1554 0 -97 -99 c-90 -91
-97 -101 -97 -138 0 -52 31 -83 85 -83 38 0 47 8 217 178 239 239 239 205 0
444 -172 172 -179 178 -218 178 -53 0 -84 -31 -84 -85 0 -34 8 -46 97 -136
l97 -99 -1554 0 -1554 0 97 99 c90 91 97 101 97 138 0 52 -31 83 -85 83 -38 0
-47 -8 -217 -178z"/>
</g>
</svg>
